<?xml version="1.0" encoding="utf-8"?>
<!-- Generator: Adobe Illustrator 15.1.0, SVG Export Plug-In . SVG Version: 6.00 Build 0)  -->
<!DOCTYPE svg PUBLIC "-//W3C//DTD SVG 1.1//EN" "http://www.w3.org/Graphics/SVG/1.1/DTD/svg11.dtd">
<svg version="1.1" xmlns="http://www.w3.org/2000/svg" xmlns:xlink="http://www.w3.org/1999/xlink" x="0px" y="0px" width="642px"
	 height="498px" viewBox="0 0 642 498" enable-background="new 0 0 642 498" xml:space="preserve">
<g id="Layer_1">
	<path fill="#FFFFFF" stroke="#000000" stroke-miterlimit="10" d="M366.176,62.431l-6.909,184.523l-204.104-6.397l-20.147-50.013
		l-38.428,3.941l36.032,58.886l14.489,227.073l50.116-148.924c16.318,44.45,139.444,58.088,143.135-27.579
		c17.103,3.601,57.615,180.056,57.615,180.056l22.893-172.741l-5.416-200.688l11.652,4.152l48.151-21.142l-3.604-16.204
		l-57.615-25.209l-20.704,4.502l8.148-39.611L366.176,62.431z"/>
	<path fill="none" stroke="#000000" stroke-miterlimit="10" d="M423.991,54.648"/>
	<path fill="none" stroke="#000000" stroke-miterlimit="10" d="M401.754,46.866"/>
	<path fill="#FFFFFF" stroke="#000000" stroke-miterlimit="10" d="M206.386,203.632"/>
</g>
<g id="Layer_2">
	<g>
		<linearGradient id="SVGID_1_" gradientUnits="userSpaceOnUse" x1="150.4956" y1="260.1787" x2="400.7701" y2="352.9081">
			<stop  offset="0" style="stop-color:#F26522"/>
			<stop  offset="0.2303" style="stop-color:#F3EB47"/>
			<stop  offset="0.47" style="stop-color:#00A14B"/>
			<stop  offset="0.8012" style="stop-color:#00B0E7"/>
			<stop  offset="1" style="stop-color:#A77BB6"/>
		</linearGradient>
		<path fill="url(#SVGID_1_)" d="M96.686,347.333c48.167-51.255,93.989-111.039,81.455-185.464
			c-0.246-1.461-4.072-0.335-4.293,0.851c-10.496,56.182-31.477,113.515-2.704,167.749c0.688,1.295,3.024,0.426,3.865-0.243
			c39.631-31.659,37.292-96.492,37.342-142.251c0.001-1.398-4.002-0.31-4.293,0.851c-6.05,24.092-13.462,47.635-17.158,72.278
			c-2.482,16.531-5.227,41.587,11.288,51.809c0.896,0.556,3.236-0.022,3.709-0.994c6.147-12.565,11.725-35.783,13.481-43.055
			c-4.039,16.717-12.68,26.377-5.021,43.6c0.606,1.366,4.022,0.447,4.293-0.852c2.682-12.852,8.074-24.277,6.333-37.576
			c-5.298-2.463-4.961,0.043,1.01,7.518c0.625,3.223,0.938,6.476,0.938,9.759c0.316,6.6,0.341,12.209,2.732,18.449
			c0.558,1.458,3.518,0.307,4.143-0.544c3.878-5.271,6.458-10.218,8.964-16.188c5.965-14.208,4.147,7.617,3.998,13.733
			c-0.043,1.773,3.978,0.786,4.291-0.553c1.98-8.423,3.426-16.941,5.333-25.382c3.809,2.29,6.075,5.633,6.805,10.027
			c2.242,5.744,3.427,12.094,5.172,18.007c1.433-0.385,2.867-0.767,4.3-1.151c-2.575-8.49-3.21-15.413-3.114-24.533
			c-0.043,4.192,6.445,15.396,7.817,20.281c0.391,1.39,4.208,0.418,4.295-0.852c0.4-5.814,0.734-11.582,1.425-17.372
			c2.345-8.044,2.953-6.534,1.824,4.53c-2.159,6.215-1.073,6.825,3.266,1.828c0.048-1.672,3.978-27.42,8.503-9.37
			c1.612,6.422,0.348,13.737,1.395,20.337c0.23,1.429,3.313,0.243,3.866-0.243c4.847-4.245,6.783-7.733,8.981-13.776
			c0.985-3.713,1.746-7.473,2.284-11.277c-1.299,7.564-3.679,15.043-6.124,22.295c-0.313,0.928,1.377,0.956,1.847,0.887
			c13.697-2.013,9.012-16.236,5.146-26.045c-1.433,0.384-2.866,0.766-4.299,1.15c14.432,25.087,37.646,30.948,63.69,38.514
			c26.055,7.57,52.143,14.945,78.948,19.375c33.068,5.469,87.17,6.445,75.027-41.934c-0.37-1.467-4.669-0.336-4.3,1.15
			c14.059,56.002-61.099,40.709-93.02,33.626c-37.373-8.296-95.887-16.829-116.048-51.882c-0.751-1.306-4.851-0.25-4.299,1.15
			c2.384,6.047,4.087,11.74,4.013,18.375c0.096-8.717,2.758-13.574,0.286-22.226c-0.412-1.433-4.091-0.38-4.295,0.853
			c-0.917,5.566-1.868,11.046-3.148,16.542c-4.8,20.563-5.212,0.141-5.252-2.827c-0.107-8.076-1.897-12.537-8.447-16.816
			c-1.06-0.695-3.409,0.178-3.856,1.301c-3.849,9.685-5.108,18.423-5.403,28.807c-0.047,1.74,4.165,0.844,4.291-0.551
			c0.773-8.512,3.514-15.943-0.895-23.707c-0.717-1.257-3.518-0.529-4.148,0.545c-4.082,6.988-4.69,13.555-5.164,21.655
			c0.781-0.25,1.563-0.502,2.345-0.751c-0.946-3.774-2.176-7.451-3.687-11.034c-1.616-4.263-3.548-5.725-6.605-8.873
			c-0.812-0.832-4.048-0.222-4.144,1.109c-0.764,10.754-0.456,20.5,2.697,30.91c0.447,1.475,4.726,0.288,4.3-1.151
			c-3.596-12.143-5.703-24.096-14.554-33.569c-0.925-0.991-3.769-0.112-4.143,1.109c-1.416,4.091-2.523,8.263-3.314,12.519
			c-0.408,2.158-0.816,4.317-1.225,6.476c-3.174,5.226-2.586,7.36,1.763,6.404c0.191-7.759-0.012-13.868-4.788-20.206
			c-0.816-1.084-3.809-0.035-4.141,1.109c-2.23,7.699-9.664,35.917-10.945,13.555c-0.651-11.387-0.393-19.271-9.222-27.268
			c-0.821-0.745-4.789,0.008-4.143,1.409c3.845,8.364,3.528,15.632,1.409,24.488c-0.437,1.826-2.708,13.088-3.433,11.462
			c-5.828-13.112,6.019-29.789,9.018-42.201c0.443-1.832-3.594-0.395-4.141,0.244c-6.992,8.131-9.507,16.578-11.987,26.944
			c-0.17,0.704-4.404,20.274-7.793,17.216c-4.146-3.736-5.442-10.136-6.5-15.3c-4.362-21.271,2.712-46.067,7.781-66.658
			c2.11-8.569,4.528-17.062,6.91-25.557c0.862-3.077,1.709-6.154,2.532-9.242c-4.899,2.432-6.157,6.601-3.77,12.51
			c-0.042,3.5-0.111,7.001-0.209,10.502c-0.632,26.759-3.29,53.671-11.65,79.209c-4.224,12.894-11.042,24.347-20.825,33.715
			c-3.009,2.884-14.315-43.119-14.701-47.035c-3.629-36.754,8.966-74.472,16.178-110.084c-2.419,11.937-0.237,28.801-2.204,42.772
			c-2.53,17.974-9.675,35.162-17.794,51.231c-15.737,31.15-39.821,57.975-63.528,83.198
			C91.533,348.492,95.737,348.341,96.686,347.333L96.686,347.333z"/>
	</g>
	<g>
		<g>
			<path d="M410.436,76.173c1.935,0,1.935-3,0-3S408.501,76.173,410.436,76.173L410.436,76.173z"/>
		</g>
	</g>
</g>
</svg>
